<?xml version="1.0" standalone="no"?>
<!DOCTYPE svg PUBLIC "-//W3C//DTD SVG 20010904//EN"
 "http://www.w3.org/TR/2001/REC-SVG-20010904/DTD/svg10.dtd">
<svg version="1.0" xmlns="http://www.w3.org/2000/svg"
 width="392.000000pt" height="392.000000pt" viewBox="0 0 392.000000 392.000000"
 preserveAspectRatio="xMidYMid meet">
<metadata>
Created by potrace 1.14, written by Peter Selinger 2001-2017
</metadata>
<g transform="translate(0.000000,392.000000) scale(0.100000,-0.100000)"
fill="#000000" stroke="none">
<path d="M1486 3299 c-27 -5 -62 -17 -78 -29 -23 -17 -32 -19 -50 -9 -14 7
-48 10 -94 6 -84 -6 -186 -46 -266 -102 -66 -47 -248 -231 -248 -250 0 -8 -4
-15 -10 -15 -5 0 -10 -6 -10 -14 0 -8 -6 -21 -13 -28 -11 -11 -27 -41 -31 -58
-1 -3 -8 -16 -16 -30 -7 -14 -13 -26 -12 -27 1 -2 2 -4 1 -5 -7 -25 -38 -153
-44 -183 -24 -131 -24 -401 0 -545 7 -42 24 -172 30 -225 4 -27 10 -75 16
-105 5 -30 11 -68 13 -85 17 -123 64 -319 97 -401 l20 -51 -26 -52 c-15 -29
-24 -55 -21 -58 3 -4 1 -12 -4 -19 -21 -25 -35 -167 -45 -464 -4 -108 -14
-284 -19 -315 0 -7 294 -11 862 -13 475 -1 861 1 859 5 -3 5 -8 59 -12 121 -4
63 -8 124 -10 135 -2 12 -6 54 -10 92 -3 39 -8 84 -10 100 -3 17 -7 46 -9 65
-3 19 -7 55 -11 80 -14 104 -14 165 1 187 8 13 19 23 25 23 5 0 20 -10 33 -23
12 -12 55 -51 96 -87 40 -36 88 -78 105 -95 132 -124 189 -173 235 -205 19
-14 37 -28 40 -31 3 -3 30 -18 61 -33 107 -51 251 -44 320 16 30 28 80 92 83
110 2 7 6 20 9 28 26 66 33 199 17 310 -5 30 -11 132 -14 225 -4 94 -8 179
-10 190 -2 11 -7 52 -11 90 -14 146 -40 231 -87 283 -18 21 -28 45 -32 79 -3
26 -8 71 -11 99 l-7 50 41 19 c23 10 51 31 64 47 12 17 28 36 35 43 6 8 12 18
12 24 0 6 3 11 8 11 4 0 16 17 27 38 11 20 26 43 32 50 7 7 13 17 13 20 0 4
16 25 35 47 19 22 35 43 35 46 0 3 9 17 20 30 11 13 23 29 28 34 18 22 39 60
37 70 -2 21 -17 55 -23 56 -4 0 -16 2 -26 4 -20 4 -71 -42 -111 -98 -11 -16
-30 -41 -42 -55 -13 -15 -23 -30 -23 -34 0 -5 -5 -8 -10 -8 -12 0 2 26 53 97
20 29 37 55 37 59 0 4 11 22 25 40 14 18 25 37 25 43 0 6 3 11 8 11 7 0 18 19
51 86 14 29 -20 74 -54 74 -27 0 -69 -40 -88 -82 -6 -16 -15 -28 -19 -28 -5 0
-8 -5 -8 -10 0 -6 -9 -20 -20 -32 -11 -12 -26 -34 -32 -50 -7 -15 -16 -28 -20
-28 -5 0 -8 -6 -8 -12 -1 -13 -34 -58 -43 -58 -3 0 -3 9 0 20 3 11 8 20 12 20
4 0 13 16 21 35 8 19 17 35 21 35 4 0 10 11 13 25 4 14 11 25 16 25 6 0 10 7
10 15 0 8 5 15 12 15 6 0 9 3 5 6 -3 4 6 25 22 48 15 22 37 62 49 88 26 57 16
93 -29 103 -30 7 -69 -12 -69 -32 0 -7 -4 -13 -10 -13 -5 0 -10 -5 -10 -10 0
-6 -20 -44 -45 -84 -25 -41 -45 -79 -45 -85 0 -6 -5 -11 -11 -11 -5 0 -7 -4
-4 -10 3 -5 2 -10 -4 -10 -6 0 -13 -11 -17 -25 -3 -14 -10 -25 -15 -25 -5 0
-9 -5 -9 -11 0 -11 -24 -39 -34 -39 -3 0 3 16 14 35 11 19 17 35 14 35 -4 0
-2 6 4 13 19 23 91 167 84 167 -4 0 -2 4 4 8 21 14 25 59 6 80 -17 21 -31 26
-64 23 -15 -1 -95 -127 -90 -143 1 -5 -3 -8 -8 -8 -5 0 -9 -3 -8 -7 2 -9 -82
-186 -92 -193 -4 -3 -12 -15 -19 -27 -6 -13 -18 -23 -25 -23 -14 0 -46 57 -46
80 0 7 -7 25 -17 40 -29 50 -106 73 -149 45 -31 -20 -31 -55 1 -93 14 -17 25
-35 25 -41 0 -6 4 -11 9 -11 15 0 23 -51 27 -175 2 -66 5 -127 7 -135 12 -50
22 -79 37 -110 29 -58 33 -80 17 -80 -22 0 -27 -23 -27 -128 0 -82 -3 -99 -20
-117 -11 -12 -25 -37 -30 -56 -11 -36 -6 -288 6 -374 4 -27 4 -48 1 -45 -48
42 -189 174 -256 241 -47 47 -108 102 -136 122 l-50 36 -1 168 c-1 156 -9 287
-19 323 -3 8 -7 33 -10 55 -17 117 -76 374 -105 452 -51 139 -140 280 -233
373 -55 55 -128 110 -146 110 -6 0 -11 4 -11 9 0 8 -28 22 -50 26 -3 0 -14 6
-25 11 -18 10 -33 15 -95 31 -8 2 -31 6 -50 9 -19 2 -42 6 -50 7 -8 2 -37 0
-64 -4z"/>
</g>
</svg>
